<svg id="Layer_1" height="512" viewBox="0 0 48 48" width="512" xmlns="http://www.w3.org/2000/svg" data-name="Layer 1"><ellipse cx="30.302" cy="36.744" fill="#7cc9f2" rx="10.473" ry="10.506"/><ellipse cx="38.11" cy="22.319" fill="#1fc091" rx="9.14" ry="9.169"/><ellipse cx="30.697" cy="9.023" fill="#eb7729" rx="8.28" ry="8.306"/><ellipse cx="13.873" cy="21.071" fill="#fad36b" rx="13.123" ry="13.164"/><path d="m27.744 21.07a13.872 13.872 0 1 0 -13.871 13.914 13.908 13.908 0 0 0 13.871-13.914zm-13.871 12.416a12.416 12.416 0 1 1 12.373-12.416 12.409 12.409 0 0 1 -12.373 12.416z"/><path d="m19.389 18.048a3.792 3.792 0 0 0 -3-3.706v-1.257a.749.749 0 0 0 -1.5 0v1.174h-1.543v-1.174a.749.749 0 1 0 -1.5 0v1.174h-1.646a.749.749 0 0 0 -.749.749v12.161a.749.749 0 0 0 .749.749h1.644v1.264a.749.749 0 1 0 1.5 0v-1.264h1.545v1.264a.749.749 0 0 0 1.5 0v-1.347a3.791 3.791 0 0 0 1.474-6.747 3.789 3.789 0 0 0 1.526-3.04zm-1.5 6.08a2.289 2.289 0 0 1 -2.279 2.292h-4.657v-4.583h4.657a2.288 2.288 0 0 1 2.281 2.291zm-2.279-3.789h-4.657v-4.582h4.657a2.291 2.291 0 0 1 0 4.582z"/><path d="m40.309 33.509a.749.749 0 0 0 -.545.908 9.693 9.693 0 1 1 -19.087 2.363q0-.423.036-.838a.749.749 0 0 0 -1.492-.127q-.042.477-.042.965a11.186 11.186 0 1 0 22.038-2.726.747.747 0 0 0 -.908-.545z"/><path d="m41.022 12.838a.749.749 0 0 0 -.441 1.432 8.416 8.416 0 1 1 -10.862 8.048 8.458 8.458 0 0 1 .23-1.967.749.749 0 1 0 -1.457-.351 9.894 9.894 0 1 0 19.508 2.318 9.864 9.864 0 0 0 -6.978-9.48z"/><path d="m22.476 8.355a.754.754 0 0 0 .864-.612 7.5 7.5 0 1 1 5.789 8.632.749.749 0 1 0 -.319 1.463 9.019 9.019 0 1 0 1.919-17.838 8.977 8.977 0 0 0 -8.866 7.49.75.75 0 0 0 .613.865z"/><path d="m34.427 38.951c0-.012-.014-.02-.018-.031s0-.019 0-.027l-3.353-7.7a.78.78 0 0 0 -1.373 0l-3.353 7.7v.027s-.014.019-.018.031a.756.756 0 0 0 -.036.3c0 .012.008.023.01.035a.728.728 0 0 0 .1.282c.007.012.006.027.014.039l3.353 4.968a.748.748 0 0 0 1.241 0l3.353-4.968c.008-.012.007-.027.014-.039a.746.746 0 0 0 .1-.282c0-.012.008-.023.009-.035a.738.738 0 0 0 -.043-.3zm-4.062-5.587 2.341 5.38-2.341.792-2.342-.792zm0 9.456-1.49-2.207 1.25.423a.74.74 0 0 0 .48 0l1.25-.423z"/><path d="m31.593 11.659h-1.71a.942.942 0 0 1 -.939-.943.749.749 0 0 0 -1.5 0 2.442 2.442 0 0 0 2.437 2.441h.106v1.243a.749.749 0 1 0 1.5 0v-1.243h.106a2.442 2.442 0 0 0 0-4.884h-1.71a.943.943 0 0 1 0-1.886h1.71a.942.942 0 0 1 .939.943.749.749 0 1 0 1.5 0 2.442 2.442 0 0 0 -2.437-2.441h-.106v-1.246a.749.749 0 1 0 -1.5 0v1.246h-.106a2.441 2.441 0 0 0 0 4.882h1.71a.944.944 0 0 1 0 1.888z"/><path d="m38.11 17.16a2.982 2.982 0 0 0 -2.838 3.981 3.016 3.016 0 0 0 .577 5.975 2.988 2.988 0 0 0 2.261-1.047 3 3 0 0 0 5.27-1.969 3.02 3.02 0 0 0 -2.432-2.959 2.982 2.982 0 0 0 -2.838-3.981zm0 1.5a1.519 1.519 0 1 1 -1.51 1.517 1.517 1.517 0 0 1 1.51-1.519zm-2.261 6.96a1.519 1.519 0 1 1 1.512-1.52 1.517 1.517 0 0 1 -1.512 1.518zm6.033-1.52a1.512 1.512 0 1 1 -1.511-1.519 1.516 1.516 0 0 1 1.511 1.519z"/></svg>