<svg height="512" viewBox="0 0 64 64" width="512" xmlns="http://www.w3.org/2000/svg"><g id="Filled_outline" data-name="Filled outline"><g id="Color"><g fill="#27363a"><path d="m4 39h10a1 1 0 0 1 1 1v21a0 0 0 0 1 0 0h-12a0 0 0 0 1 0 0v-21a1 1 0 0 1 1-1z"/><path d="m27 29h10a1 1 0 0 1 1 1v31a0 0 0 0 1 0 0h-12a0 0 0 0 1 0 0v-31a1 1 0 0 1 1-1z"/><path d="m50 21h10a1 1 0 0 1 1 1v39a0 0 0 0 1 0 0h-12a0 0 0 0 1 0 0v-39a1 1 0 0 1 1-1z"/></g><circle cx="44" cy="46" fill="#faca30" r="12"/><path d="m54.568 2.868-7.268.484a1 1 0 0 0 -.641 1.705l1.271 1.271-11.076 11.072-7.825-8.6a3.082 3.082 0 0 0 -1.614-.979 3.042 3.042 0 0 0 -2.786.811l-21.086 21.082a2 2 0 0 0 0 2.828l1.414 1.415a2 2 0 0 0 2.828 0l18.862-18.857 7.884 8.672a3 3 0 0 0 4.34.1l13.3-13.3 1.27 1.27a1 1 0 0 0 1.705-.64l.484-7.268a1 1 0 0 0 -1.062-1.066z" fill="#faca30"/></g><g id="Outline" fill="#1e120b"><path d="m14 38h-10a2 2 0 0 0 -2 2v21a1 1 0 0 0 1 1h12a1 1 0 0 0 1-1v-21a2 2 0 0 0 -2-2zm0 22h-10v-20h10z"/><circle cx="16" cy="3" r="1"/><path d="m60 20h-10a2 2 0 0 0 -2 2v11.636a12.934 12.934 0 0 0 -9 .364v-4a2 2 0 0 0 -2-2h-10a2 2 0 0 0 -2 2v31a1 1 0 0 0 1 1h12a1 1 0 0 0 1-1v-3a12.934 12.934 0 0 0 9 .367v2.633a1 1 0 0 0 1 1h12a1 1 0 0 0 1-1v-39a2 2 0 0 0 -2-2zm-23 40h-10v-30h10v5.063a12.968 12.968 0 0 0 0 21.874zm7-3a11 11 0 1 1 11-11 11.013 11.013 0 0 1 -11 11zm16 3h-10v-2.479a12.981 12.981 0 0 0 0-23.042v-12.479h10z"/><path d="m47 39v-1a1 1 0 0 0 -2 0v1h-2v-1a1 1 0 0 0 -2 0v1h-3a1 1 0 0 0 0 2h1v10h-1a1 1 0 0 0 0 2h3v1a1 1 0 0 0 2 0v-1h2v1a1 1 0 0 0 2 0v-1a3.983 3.983 0 0 0 2.618-7 3.983 3.983 0 0 0 -2.618-7zm0 12h-6v-4h6a2 2 0 0 1 0 4zm0-6h-6v-4h6a2 2 0 0 1 0 4z"/><path d="m3 4h9a1 1 0 0 0 0-2h-9a1 1 0 0 0 0 2z"/><path d="m3 9h13a1 1 0 0 0 0-2h-13a1 1 0 0 0 0 2z"/><path d="m4.25 34.665a3.036 3.036 0 0 0 4.242 0c4.482-4.578 18.12-18.119 18.12-18.119s5.4 5.907 7.179 7.9a4.044 4.044 0 0 0 5.788.137c3.114-3.183 12.594-12.599 12.594-12.599s.424.42.562.563a2.019 2.019 0 0 0 3.411-1.281c.087-1.819.484-7.266.484-7.266a2.013 2.013 0 0 0 -2.13-2.13l-7.268.485a2.011 2.011 0 0 0 -1.281 3.409l.564.564-9.628 9.628s-5.371-5.847-7.12-7.832a4.039 4.039 0 0 0 -5.847-.2c-5.244 5.294-15.754 15.876-21.084 21.083a3.035 3.035 0 0 0 0 4.243c.357.35 1.064 1.057 1.414 1.415zm0-4.244c5.35-5.193 15.95-15.68 21.087-21.086a2.078 2.078 0 0 1 2.952.134c1.854 2.241 5.9 6.429 7.825 8.608a1.017 1.017 0 0 0 1.447.034c2.719-2.818 11.077-11.076 11.077-11.076a1 1 0 0 0 0-1.414l-1.271-1.271 7.267-.485-.484 7.268-1.27-1.27a1 1 0 0 0 -1.414 0s-10.005 9.948-13.3 13.3a2.024 2.024 0 0 1 -2.893-.069c-1.952-2.185-5.911-6.507-7.884-8.672a1 1 0 0 0 -1.447-.034c-4.716 4.715-14.2 14.093-18.862 18.86a1.012 1.012 0 0 1 -1.414 0c-.35-.358-1.057-1.065-1.414-1.415a1.01 1.01 0 0 1 -.002-1.412z"/></g></g></svg>